HIERARCHY
ROOT hips
{
  OFFSET 0 9.313263304106702 1.2146308026317778
  CHANNELS 6 Xposition Yposition Zposition Yrotation Xrotation Zrotation
  JOINT spine
  {
    OFFSET -6.402521e-31 0.5173342420023708 0
    CHANNELS 3 Yrotation Xrotation Zrotation
    JOINT chest
    {
      OFFSET 0 1.130544299341115 0
      CHANNELS 3 Yrotation Xrotation Zrotation
      JOINT upperChest
      {
        OFFSET 0 1.0863555061129995 0
        CHANNELS 3 Yrotation Xrotation Zrotation
        JOINT neck
        {
          OFFSET 0 1.3773706506454462 0
          CHANNELS 3 Yrotation Xrotation Zrotation
          JOINT head
          {
            OFFSET 0 0.7374408940073979 0
            CHANNELS 3 Yrotation Xrotation Zrotation
            JOINT leftEye
            {
              OFFSET 0.25066580148932727 0.6408406698778757 0.15963719178883284
              CHANNELS 3 Yrotation Xrotation Zrotation
              End Site
              {
                OFFSET 0.25066580148932727 0.6408406698778757 0.15963719178883284
              }
            }
            JOINT rightEye
            {
              OFFSET -0.25066576739704244 0.6408406384191823 0.15963727561643756
              CHANNELS 3 Yrotation Xrotation Zrotation
              End Site
              {
                OFFSET -0.25066576739704244 0.6408406384191823 0.15963727561643756
              }
            }
          }
        }
        JOINT leftShoulder
        {
          OFFSET 0.3761817444281191 1.0539491987447769 0
          CHANNELS 3 Yrotation Xrotation Zrotation
          JOINT leftUpperArm
          {
            OFFSET 0.8702844380000002 0 0
            CHANNELS 3 Yrotation Xrotation Zrotation
            JOINT leftLowerArm
            {
              OFFSET 2.198527310000323 0 0
              CHANNELS 3 Yrotation Xrotation Zrotation
              JOINT leftHand
              {
                OFFSET 2.146852313968281 0 0
                CHANNELS 3 Yrotation Xrotation Zrotation
                JOINT leftIndexProximal
                {
                  OFFSET 0.6585177834681599 0.07380250427007962 0.18382213159631788
                  CHANNELS 3 Yrotation Xrotation Zrotation
                  JOINT leftIndexIntermediate
                  {
                    OFFSET 0.3323021288626682 -0.009606893929485771 -0.012820872253340998
                    CHANNELS 3 Yrotation Xrotation Zrotation
                    JOINT leftIndexDistal
                    {
                      OFFSET 0.2045908926985518 -0.0071133989147997845 -0.006828784783599051
                      CHANNELS 3 Yrotation Xrotation Zrotation
                      End Site
                      {
                        OFFSET 0.2045908926985518 -0.0071133989147997845 -0.006828784783599051
                      }
                    }
                  }
                }
                JOINT leftLittleProximal
                {
                  OFFSET 0.6110054258835662 0.07380246363125398 -0.29175655876064077
                  CHANNELS 3 Yrotation Xrotation Zrotation
                  JOINT leftLittleIntermediate
                  {
                    OFFSET 0.3144281999999998 -2.5124724523095665e-9 1.8658118799974588e-7
                    CHANNELS 3 Yrotation Xrotation Zrotation
                    JOINT leftLittleDistal
                    {
                      OFFSET 0.18116185580251631 0.002815456192251098 0.0034826415518049436
                      CHANNELS 3 Yrotation Xrotation Zrotation
                      End Site
                      {
                        OFFSET 0.18116185580251631 0.002815456192251098 0.0034826415518049436
                      }
                    }
                  }
                }
                JOINT leftMiddleProximal
                {
                  OFFSET 0.6637478005691111 0.07380246480054087 0.02046981859247815
                  CHANNELS 3 Yrotation Xrotation Zrotation
                  JOINT leftMiddleIntermediate
                  {
                    OFFSET 0.3705733999999994 -2.9611069152224445e-9 9.35054791928458e-8
                    CHANNELS 3 Yrotation Xrotation Zrotation
                    JOINT leftMiddleDistal
                    {
                      OFFSET 0.22861063500000056 -1.82673876025774e-9 -1.6740782024515788e-7
                      CHANNELS 3 Yrotation Xrotation Zrotation
                      End Site
                      {
                        OFFSET 0.22861063500000056 -1.82673876025774e-9 -1.6740782024515788e-7
                      }
                    }
                  }
                }
                JOINT leftRingProximal
                {
                  OFFSET 0.6561845547265777 0.07380246406440083 -0.13588087571513918
                  CHANNELS 3 Yrotation Xrotation Zrotation
                  JOINT leftRingIntermediate
                  {
                    OFFSET 0.3437531000000005 -2.746796123886952e-9 1.4935781944558357e-7
                    CHANNELS 3 Yrotation Xrotation Zrotation
                    JOINT leftRingDistal
                    {
                      OFFSET 0.1983118991198174 -0.002467117924596085 -0.004538141969590015
                      CHANNELS 3 Yrotation Xrotation Zrotation
                      End Site
                      {
                        OFFSET 0.1983118991198174 -0.002467117924596085 -0.004538141969590015
                      }
                    }
                  }
                }
                JOINT leftThumbProximal
                {
                  OFFSET 0.09767004258864787 -0.14930060425447422 -0.07008212897521154
                  CHANNELS 3 Yrotation Xrotation Zrotation
                  JOINT leftThumbIntermediate
                  {
                    OFFSET 0.36682123028154767 -0.015768465060082004 0.28693641268151077
                    CHANNELS 3 Yrotation Xrotation Zrotation
                    JOINT leftThumbDistal
                    {
                      OFFSET 0.21091084272403915 -0.016756648201192714 0.1933767059105508
                      CHANNELS 3 Yrotation Xrotation Zrotation
                      End Site
                      {
                        OFFSET 0.21091084272403915 -0.016756648201192714 0.1933767059105508
                      }
                    }
                  }
                }
              }
            }
          }
        }
        JOINT rightShoulder
        {
          OFFSET -0.37618174442811925 1.0539491987447769 0
          CHANNELS 3 Yrotation Xrotation Zrotation
          JOINT rightUpperArm
          {
            OFFSET -0.870284438 0 0
            CHANNELS 3 Yrotation Xrotation Zrotation
            JOINT rightLowerArm
            {
              OFFSET -2.1985273100003235 0 0
              CHANNELS 3 Yrotation Xrotation Zrotation
              JOINT rightHand
              {
                OFFSET -2.1468523139682802 0 0
                CHANNELS 3 Yrotation Xrotation Zrotation
                JOINT rightIndexProximal
                {
                  OFFSET -0.6585177834681599 0.07380250427007962 0.18382213159631788
                  CHANNELS 3 Yrotation Xrotation Zrotation
                  JOINT rightIndexIntermediate
                  {
                    OFFSET -0.3323021288626682 -0.009606893929485771 -0.012820872253340998
                    CHANNELS 3 Yrotation Xrotation Zrotation
                    JOINT rightIndexDistal
                    {
                      OFFSET -0.2045908926985518 -0.0071133989147997845 -0.006828784783599051
                      CHANNELS 3 Yrotation Xrotation Zrotation
                      End Site
                      {
                        OFFSET -0.2045908926985518 -0.0071133989147997845 -0.006828784783599051
                      }
                    }
                  }
                }
                JOINT rightLittleProximal
                {
                  OFFSET -0.6110054258835662 0.07380246363125398 -0.29175655876064077
                  CHANNELS 3 Yrotation Xrotation Zrotation
                  JOINT rightLittleIntermediate
                  {
                    OFFSET -0.3144281999999998 -2.5124724523095665e-9 1.8658118799974588e-7
                    CHANNELS 3 Yrotation Xrotation Zrotation
                    JOINT rightLittleDistal
                    {
                      OFFSET -0.18116185580251631 0.002815456192251098 0.0034826415518049436
                      CHANNELS 3 Yrotation Xrotation Zrotation
                      End Site
                      {
                        OFFSET -0.18116185580251631 0.002815456192251098 0.0034826415518049436
                      }
                    }
                  }
                }
                JOINT rightMiddleProximal
                {
                  OFFSET -0.6637478005691111 0.07380246480054087 0.02046981859247815
                  CHANNELS 3 Yrotation Xrotation Zrotation
                  JOINT rightMiddleIntermediate
                  {
                    OFFSET -0.3705733999999994 -2.9611069152224445e-9 9.35054791928458e-8
                    CHANNELS 3 Yrotation Xrotation Zrotation
                    JOINT rightMiddleDistal
                    {
                      OFFSET -0.22861063500000056 -1.82673876025774e-9 -1.6740782024515788e-7
                      CHANNELS 3 Yrotation Xrotation Zrotation
                      End Site
                      {
                        OFFSET -0.22861063500000056 -1.82673876025774e-9 -1.6740782024515788e-7
                      }
                    }
                  }
                }
                JOINT rightRingProximal
                {
                  OFFSET -0.6561845547265777 0.07380246406440083 -0.13588087571513918
                  CHANNELS 3 Yrotation Xrotation Zrotation
                  JOINT rightRingIntermediate
                  {
                    OFFSET -0.3437531000000005 -2.746796123886952e-9 1.4935781944558357e-7
                    CHANNELS 3 Yrotation Xrotation Zrotation
                    JOINT rightRingDistal
                    {
                      OFFSET -0.1983118991198174 -0.002467117924596085 -0.004538141969590015
                      CHANNELS 3 Yrotation Xrotation Zrotation
                      End Site
                      {
                        OFFSET -0.1983118991198174 -0.002467117924596085 -0.004538141969590015
                      }
                    }
                  }
                }
                JOINT rightThumbProximal
                {
                  OFFSET -0.09767004258864787 -0.14930060425447422 -0.07008212897521154
                  CHANNELS 3 Yrotation Xrotation Zrotation
                  JOINT rightThumbIntermediate
                  {
                    OFFSET -0.36682123028154767 -0.015768465060082004 0.28693641268151077
                    CHANNELS 3 Yrotation Xrotation Zrotation
                    JOINT rightThumbDistal
                    {
                      OFFSET -0.21091084272403915 -0.016756648201192714 0.1933767059105508
                      CHANNELS 3 Yrotation Xrotation Zrotation
                      End Site
                      {
                        OFFSET -0.21091084272403915 -0.016756648201192714 0.1933767059105508
                      }
                    }
                  }
                }
              }
            }
          }
        }
      }
    }
  }
  JOINT leftUpperLeg
  {
    OFFSET 0.7715603 -0.3993844658041501 0
    CHANNELS 3 Yrotation Xrotation Zrotation
    JOINT leftLowerLeg
    {
      OFFSET 0 -3.529830000249343 0
      CHANNELS 3 Yrotation Xrotation Zrotation
      JOINT leftFoot
      {
        OFFSET 0 -4.154939295409685 0.004208579085223096
        CHANNELS 3 Yrotation Xrotation Zrotation
        JOINT leftToes
        {
          OFFSET 0 -0.6353414391261847 1.10414981190622
          CHANNELS 3 Yrotation Xrotation Zrotation
          End Site
          {
            OFFSET 0 -0.6015820691747853 1.10414981190622
          }
        }
      }
    }
  }
  JOINT rightUpperLeg
  {
    OFFSET -0.7715603 -0.3993844658041501 0
    CHANNELS 3 Yrotation Xrotation Zrotation
    JOINT rightLowerLeg
    {
      OFFSET 0 -3.529830000249343 0
      CHANNELS 3 Yrotation Xrotation Zrotation
      JOINT rightFoot
      {
        OFFSET 0 -4.154939295409685 0.004208579085223096
        CHANNELS 3 Yrotation Xrotation Zrotation
        JOINT rightToes
        {
          OFFSET 0 -0.6353414391261847 1.10414981190622
          CHANNELS 3 Yrotation Xrotation Zrotation
          End Site
          {
            OFFSET 0 -0.6015820691747853 1.10414981190622
          }
        }
      }
    }
  }
}
MOTION
Frames: 4
Frame Time: 0.03333333333333333
-0.0007991874273019757 8.773216767744584 1.3975148807659679 -14.299790685200312 -2.8269166603253595 0.9310674008057899 -1.4922329155610377 -0.9871931386980216 -0.2029971963306402 -5.730756774727503 -0.1369861910573415 4.353920919455403 0 0 0 -1.0715449662614793 1.072186377528082 3.1905526889329088 -2.652377320225194 -2.540425340187922 4.7023280124359585 0 0 0 0 0 0 1.0105877123535 1.0555695047247715 -9.146201459413609 -37.794857702010695 17.689870253634446 -62.295354629219226 -93.42580985805942 -0.00008305431761206146 0.00007219413340374208 9.51324597113973 -9.82155269719378 25.899459601384613 5.337638957884132 2.514786759644884 -50.47128900483656 2.7215638116273304 0.5558589057372904 -23.066714385714867 -1.7845918033283439 0.23238093489535222 14.889563362497318 8.771139431871196 4.518167943013825 -33.782347936354576 -0.2768759772337498 1.303954263297129 -34.29773465556715 3.806696308362343 1.2819290860880492 -33.788039649625354 5.741771929901076 2.9166613077361627 -46.41301802366073 3.1295925379134415 0.7467116651560842 -26.87350933843306 0.015652277823525306 3.7730187386403093e-7 -0.10980779911213195 6.365345337293384 3.31788781589749 -41.44630611172043 3.586099997254651 1.0026158965404832 -31.21918276750859 2.2391997363771394 0.3728088430094125 -18.890820555474786 -11.380268633032369 -18.36154050344737 -15.683732935245192 23.759592197677904 4.488716593208178 3.7663896532798247 27.735686267013538 1.378875402323506 4.321113012381781 -10.12462398675054 -0.4573250276971591 11.453635011569558 51.67397216699373 12.553588438387683 62.576359243677935 75.58482960381514 0.00001545514997833533 -0.000014544103956711937 20.396058475568513 -18.131941633906795 -3.022552510894363 -1.1068167522811916 -1.6261632004426136 44.05392840664628 -3.6441469120006382 1.0373523794887403 31.70096974721602 -0.24563337553923234 0.003959463249674168 1.9329327587276521 -8.500154414775139 4.433925713944759 34.77582301319196 -4.987699018824485 2.0308434440025662 46.09006385629769 -5.124204659005274 2.0718365494534394 46.088656162985345 -3.2998821949429673 0.5621697139311271 41.99160315811838 -3.976993877933967 1.2825074491108126 35.58722070674399 -2.1771364923310155 -0.744114532738827 15.481292613665985 -6.0562551203040105 2.860990257902081 38.031284380368966 -4.6431744726122135 1.7497879050284586 41.36476490786095 -4.2769844320253325 0.30464903005767685 32.50841797576051 -4.335653790331533 -1.614629228808796 -6.622430494937682 -7.683587037565837 4.193259988806143 -0.6312484999450422 -29.11469972731036 0.5483539936754168 -5.232592242343668 5.63232171978396 -5.076692095313124 2.361805736118643 9.71532606766602 21.93575670282219 4.466243571259099 10.292632336383155 -12.373887464460608 -8.263329614266349 0.000003359221043028416 3.4547093350081896e-7 -0.0000017075476996141866 -10.32690644672584 -7.6093670832128 -14.12869128901898 10.315212864595283 11.952411853205952 2.860514889520746 6.011772693097539 -5.025544521867318 10.825123805370868 -0.000005669468486339704 0.00001779368837920504 4.268841005709896e-7
0.03530568019910292 8.775826367464932 1.411394553813467 -13.929512599413481 -2.8017851896744523 1.0709714030133755 -1.4286829828240009 -1.0770344233540634 -0.44295394009553407 -5.54989463301177 -0.46598913710864254 3.8585906459828463 0 0 0 -1.16180026121825 0.3469183133075873 3.121667224897929 -3.4197964034677715 -4.564334267141327 5.580996571957684 0 0 0 0 0 0 1.0339707411523467 1.0515436015476283 -9.142333121716295 -37.797163332738265 18.195495983120562 -62.56788726483547 -94.18044158990736 -0.00007269715324066911 0.00007126748363174226 10.866871320379529 -9.493616499734285 25.661980819614065 5.337638957884132 2.514786759644884 -50.47128900483656 2.7215638116273304 0.5558589057372904 -23.066714385714867 -1.7845918033283439 0.23238093489535222 14.889563362497318 8.771139431871196 4.518167943013825 -33.782347936354576 -0.2768759772337498 1.303954263297129 -34.29773465556715 3.806696308362343 1.2819290860880492 -33.788039649625354 5.741771929901076 2.9166613077361627 -46.41301802366073 3.1295925379134415 0.7467116651560842 -26.87350933843306 0.015652277823525306 3.7730187386403093e-7 -0.10980779911213195 6.365345337293384 3.31788781589749 -41.44630611172043 3.586099997254651 1.0026158965404832 -31.21918276750859 2.2391997363771394 0.3728088430094125 -18.890820555474786 -11.380268633032369 -18.36154050344737 -15.683732935245192 23.759592197677904 4.488716593208178 3.7663896532798247 27.735686267013538 1.378875402323506 4.321113012381781 -10.180031381514254 -0.4687979324178166 11.429786742980106 51.164029325317 12.946993029097689 63.283668645852394 75.95964493992047 0.0000018528112143589868 0.000007577171901612983 20.356114045488464 -18.475300281482777 -2.7123085231755666 -1.1068167522811916 -1.6261632004426136 44.05392840664628 -3.6441469120006382 1.0373523794887403 31.70096974721602 -0.24563337553923234 0.003959463249674168 1.9329327587276521 -8.500154414775139 4.433925713944759 34.77582301319196 -4.987699018824485 2.0308434440025662 46.09006385629769 -5.124204659005274 2.0718365494534394 46.088656162985345 -3.2998821949429673 0.5621697139311271 41.99160315811838 -3.976993877933967 1.2825074491108126 35.58722070674399 -2.1771364923310155 -0.744114532738827 15.481292613665985 -6.0562551203040105 2.860990257902081 38.031284380368966 -4.6431744726122135 1.7497879050284586 41.36476490786095 -4.2769844320253325 0.30464903005767685 32.50841797576051 -4.335653790331533 -1.614629228808796 -6.622430494937682 -7.683587037565837 4.193259988806143 -0.6312484999450422 -29.11469972731036 0.5483539936754168 -5.232592242343668 5.269978945503019 -4.983402111703208 1.8857830203069406 9.72097625156238 21.76671163833558 4.446313340011939 10.379797701322085 -12.40412796069083 -7.976645094107093 -0.000009236768032183142 -0.000011596708258282291 0.0000025613201245327817 -10.638961392137158 -7.121610711501659 -14.549634270467 10.205082612748873 10.944844586123072 2.6528434151441767 5.847829489319564 -4.60667267260866 11.26193177043511 0.0000016771725372953365 -0.000012525602026111334 4.268855763483618e-7
0.06431399421258406 8.777802207253195 1.4203397615176643 -13.99345816711775 -2.726247834301007 1.2430492041559627 -1.37407285409211 -1.1668052369832669 -0.7015145004239048 -5.40399364038746 -0.7962193377868116 3.320296955391817 0 0 0 -1.0971521775561957 -0.3684313205400143 3.073457443066481 -3.306044560881502 -6.6355114625588705 6.05066184169967 0 0 0 0 0 0 1.02057525865912 1.056194039472608 -9.173712419318699 -37.810999671918836 18.746136265471055 -62.848390941736064 -94.79301896031659 -0.0000518177979832443 0.00008145858579807809 11.975282112262642 -9.285666692853727 25.434068858489645 5.337638957884132 2.514786759644884 -50.47128900483656 2.7215638116273304 0.5558589057372904 -23.066715956816406 -1.7845918033283439 0.23238093489535222 14.889563362497318 8.771139431871196 4.518167943013825 -33.782347936354576 -0.2768759772337498 1.303954263297129 -34.29773465556715 3.806696308362343 1.2819290860880492 -33.788039649625354 5.741771929901076 2.9166613077361627 -46.41301802366073 3.1295925379134415 0.7467116651560842 -26.87350933843306 0.015652277823525306 3.7730187386403093e-7 -0.10980779911213195 6.365345337293384 3.31788781589749 -41.44630611172043 3.586099997254651 1.0026158965404832 -31.21918276750859 2.2391997363771394 0.3728088430094125 -18.890820555474786 -11.380268633032369 -18.36154050344737 -15.683732935245192 23.759592197677904 4.488716593208178 3.7663896532798247 27.735686267013538 1.378875402323506 4.321113012381781 -10.220576482274558 -0.4770503093570976 11.409498596017245 50.68882759195164 13.443884271455484 63.964826347680734 76.36143039242343 -0.000006325750958422154 -0.00002909155273739165 20.2147357224071 -18.741217196580575 -2.4631564472956744 -1.1068167522811916 -1.6261632004426136 44.05392840664628 -3.6441469120006382 1.0373523794887403 31.70096974721602 -0.24563337553923234 0.003959463249674168 1.9329327587276521 -8.500154414775139 4.433925713944759 34.77582301319196 -4.987699018824485 2.0308434440025662 46.09006385629769 -5.124204659005274 2.0718365494534394 46.088656162985345 -3.2998821949429673 0.5621697139311271 41.99160315811838 -3.976993877933967 1.2825074491108126 35.58722070674399 -2.1771364923310155 -0.744114532738827 15.481292613665985 -6.0562551203040105 2.860990257902081 38.031284380368966 -4.6431744726122135 1.7497879050284586 41.36476490786095 -4.2769844320253325 0.30464903005767685 32.50841797576051 -4.335653790331533 -1.614629228808796 -6.622430494937682 -7.683587037565837 4.193259988806143 -0.6312484999450422 -29.11469972731036 0.5483539936754168 -5.232592242343668 4.883946149359129 -4.896649784170273 1.376070056538158 9.79353915365087 21.55784662924872 4.463958203128635 10.905792070181324 -12.371538826221226 -7.822232079497307 -0.0000023003918966865065 -0.00004284370692420146 0.0000034150813538988965 -10.852895612995846 -7.0314780899867735 -14.912087739882388 10.162393899334933 10.33891739283523 2.5458970760029738 6.041655383553165 -4.300710477411891 11.39472634971706 -0.000005868962239514076 -0.00009568650944000578 0.00018356365284771624
0.0849711691791361 8.779184168035332 1.4237527234775031 -14.524384149345652 -2.5963210632555627 1.4473322433501086 -1.3276797736744013 -1.2544517613223223 -0.977460838793119 -5.2887324720118 -1.121616124628407 2.7267498168925988 0 0 0 -0.8613471164399035 -1.0763077336809843 3.0379167381864685 -2.2163433459276805 -8.779451081580952 5.981377418364835 0 0 0 0 0 0 0.9675873453112775 1.070110811258561 -9.243382140235347 -37.82805804104191 19.35293974355565 -63.132747440009204 -95.26310683956056 -0.0000609416765780122 0.00005789701391961558 12.828884046986534 -9.211885751416578 25.214470166499463 5.337638957884132 2.514786759644884 -50.47128900483656 2.7215638116273304 0.5558589057372904 -23.066715956816406 -1.7845918033283439 0.23238093489535222 14.889563362497318 8.771139431871196 4.518167943013825 -33.782347936354576 -0.2768759772337498 1.303954263297129 -34.29773465556715 3.806696308362343 1.2819290860880492 -33.788039649625354 5.741771929901076 2.916661521456427 -46.41301802366073 3.1295925379134415 0.7467116651560842 -26.87350933843306 0.015652277823525306 3.7730187386403093e-7 -0.10980779911213195 6.365345337293384 3.31788781589749 -41.44630611172043 3.586099997254651 1.0026158965404832 -31.21918276750859 2.2391997363771394 0.3728088430094125 -18.890820555474786 -11.380268633032369 -18.36154050344737 -15.683732935245192 23.759592197677904 4.488716593208178 3.7663896532798247 27.735686267013538 1.378875402323506 4.321113012381781 -10.242853404905025 -0.4813423795900185 11.393528432853941 50.244605942578346 14.043553915009412 64.61879775789413 76.78832655577894 -0.000004554943909082021 -0.00001765640566493275 19.967383828689357 -18.9238059636469 -2.279046434820756 -1.1068167522811916 -1.6261632004426136 44.05392840664628 -3.6441469120006382 1.0373523794887403 31.70096974721602 -0.24563337553923234 0.003959463249674168 1.9329327587276521 -8.500154414775139 4.433925713944759 34.77582301319196 -4.987699018824485 2.0308434440025662 46.09006385629769 -5.124204659005274 2.0718365494534394 46.088656162985345 -3.2998821949429673 0.5621697139311271 41.99160315811838 -3.976993877933967 1.2825074491108126 35.58722070674399 -2.1771364923310155 -0.744114532738827 15.481292613665985 -6.0562551203040105 2.860990257902081 38.031284380368966 -4.6431744726122135 1.7497879050284586 41.36476490786095 -4.2769844320253325 0.30464903005767685 32.50841797576051 -4.335653790331533 -1.614629228808796 -6.622430494937682 -7.683587037565837 4.193259988806143 -0.6312484999450422 -29.11469972731036 0.5483539936754168 -5.232592242343668 4.477646430155092 -4.8250920701531435 0.839091938867157 9.941053375104868 21.30667551696167 4.522118042177221 11.89541478919381 -12.267614967421087 -7.810494101734505 -0.0000033569440712097375 -0.00007316299895797733 0.0000017075266316199763 -10.975154120818157 -7.285739710557777 -15.213776226491538 10.182478592440914 9.986931127619103 2.510934065214477 6.614104738449919 -4.029490668071036 11.441595533731507 -0.000006705979604148462 -0.00014531064354266976 0.00030565362297577407
